<mxfile host="app.diagrams.net" agent="Mozilla/5.0 (Windows NT 10.0; Win64; x64) AppleWebKit/537.36 (KHTML, like Gecko) Chrome/129.0.0.0 Safari/537.36" version="24.7.16">
  <diagram name="Page-1" id="c7488fd3-1785-93aa-aadb-54a6760d102a">
    <mxGraphModel dx="869" dy="468" grid="1" gridSize="10" guides="1" tooltips="1" connect="1" arrows="1" fold="1" page="1" pageScale="1" pageWidth="1100" pageHeight="850" background="none" math="0" shadow="0">
      <root>
        <mxCell id="0" />
        <mxCell id="1" parent="0" />
        <mxCell id="2b4e8129b02d487f-1" value="CLARO VTR" style="swimlane;html=1;childLayout=stackLayout;horizontal=1;startSize=20;horizontalStack=0;rounded=0;shadow=0;labelBackgroundColor=none;strokeWidth=2;fontFamily=Verdana;fontSize=13;align=center;strokeColor=#B20000;swimlaneFillColor=none;fillColor=#e51400;fontColor=#ffffff;" parent="1" vertex="1">
          <mxGeometry x="140" y="70" width="710" height="680" as="geometry" />
        </mxCell>
        <mxCell id="2b4e8129b02d487f-2" value="LOGISTICA CLARO VTR" style="swimlane;html=1;startSize=20;horizontal=0;fillColor=#C1D0DB;strokeColor=#23445d;strokeWidth=2;" parent="2b4e8129b02d487f-1" vertex="1">
          <mxGeometry y="20" width="710" height="170" as="geometry" />
        </mxCell>
        <mxCell id="2b4e8129b02d487f-6" value="&lt;font style=&quot;font-size: 10px;&quot;&gt;&lt;b&gt;ENVIO DE DATOS&lt;/b&gt;&lt;/font&gt;" style="rounded=1;whiteSpace=wrap;html=1;shadow=0;labelBackgroundColor=none;strokeWidth=2;fontFamily=Verdana;fontSize=8;align=center;" parent="2b4e8129b02d487f-2" vertex="1">
          <mxGeometry x="60" y="40" width="90" height="40" as="geometry" />
        </mxCell>
        <mxCell id="2b4e8129b02d487f-20" style="edgeStyle=orthogonalEdgeStyle;rounded=0;html=1;labelBackgroundColor=none;startArrow=none;startFill=0;startSize=5;endArrow=classicThin;endFill=1;endSize=5;jettySize=auto;orthogonalLoop=1;strokeWidth=2;fontFamily=Verdana;fontSize=8" parent="2b4e8129b02d487f-2" source="2b4e8129b02d487f-7" target="2b4e8129b02d487f-8" edge="1">
          <mxGeometry relative="1" as="geometry" />
        </mxCell>
        <mxCell id="2b4e8129b02d487f-7" value="" style="rounded=1;whiteSpace=wrap;html=1;shadow=0;labelBackgroundColor=none;strokeWidth=2;fontFamily=Verdana;fontSize=8;align=center;" parent="2b4e8129b02d487f-2" vertex="1">
          <mxGeometry x="180" y="41.5" width="90" height="37" as="geometry" />
        </mxCell>
        <mxCell id="2b4e8129b02d487f-8" value="" style="ellipse;whiteSpace=wrap;html=1;rounded=0;shadow=0;labelBackgroundColor=none;strokeWidth=2;fontFamily=Verdana;fontSize=8;align=center;" parent="2b4e8129b02d487f-2" vertex="1">
          <mxGeometry x="340" y="45" width="30" height="30" as="geometry" />
        </mxCell>
        <mxCell id="2b4e8129b02d487f-22" style="edgeStyle=orthogonalEdgeStyle;rounded=0;html=1;entryX=0;entryY=0.5;labelBackgroundColor=none;startArrow=none;startFill=0;startSize=5;endArrow=classicThin;endFill=1;endSize=5;jettySize=auto;orthogonalLoop=1;strokeWidth=2;fontFamily=Verdana;fontSize=8" parent="2b4e8129b02d487f-2" source="2b4e8129b02d487f-9" target="2b4e8129b02d487f-10" edge="1">
          <mxGeometry relative="1" as="geometry" />
        </mxCell>
        <mxCell id="2b4e8129b02d487f-9" value="" style="rounded=1;whiteSpace=wrap;html=1;shadow=0;labelBackgroundColor=none;strokeWidth=2;fontFamily=Verdana;fontSize=8;align=center;" parent="2b4e8129b02d487f-2" vertex="1">
          <mxGeometry x="420" y="56.49999999999997" width="70" height="37" as="geometry" />
        </mxCell>
        <mxCell id="2b4e8129b02d487f-23" style="edgeStyle=orthogonalEdgeStyle;rounded=0;html=1;labelBackgroundColor=none;startArrow=none;startFill=0;startSize=5;endArrow=classicThin;endFill=1;endSize=5;jettySize=auto;orthogonalLoop=1;strokeWidth=2;fontFamily=Verdana;fontSize=8" parent="2b4e8129b02d487f-2" source="2b4e8129b02d487f-10" target="2b4e8129b02d487f-11" edge="1">
          <mxGeometry relative="1" as="geometry" />
        </mxCell>
        <mxCell id="2b4e8129b02d487f-10" value="" style="shape=mxgraph.bpmn.shape;html=1;verticalLabelPosition=bottom;labelBackgroundColor=#ffffff;verticalAlign=top;perimeter=rhombusPerimeter;background=gateway;outline=none;symbol=parallelGw;rounded=1;shadow=0;strokeWidth=2;fontFamily=Verdana;fontSize=8;align=center;" parent="2b4e8129b02d487f-2" vertex="1">
          <mxGeometry x="550" y="60" width="30" height="30" as="geometry" />
        </mxCell>
        <mxCell id="2b4e8129b02d487f-11" value="" style="ellipse;whiteSpace=wrap;html=1;rounded=0;shadow=0;labelBackgroundColor=none;strokeWidth=2;fontFamily=Verdana;fontSize=8;align=center;" parent="2b4e8129b02d487f-2" vertex="1">
          <mxGeometry x="610" y="60" width="30" height="30" as="geometry" />
        </mxCell>
        <mxCell id="2b4e8129b02d487f-3" value="KEY USER" style="swimlane;html=1;startSize=20;horizontal=0;fillColor=#C1D0DB;strokeColor=#23445d;swimlaneFillColor=none;strokeWidth=2;rounded=0;" parent="2b4e8129b02d487f-1" vertex="1">
          <mxGeometry y="190" width="710" height="170" as="geometry" />
        </mxCell>
        <mxCell id="2b4e8129b02d487f-26" style="edgeStyle=orthogonalEdgeStyle;rounded=0;html=1;labelBackgroundColor=none;startArrow=none;startFill=0;startSize=5;endArrow=classicThin;endFill=1;endSize=5;jettySize=auto;orthogonalLoop=1;strokeWidth=2;fontFamily=Verdana;fontSize=8" parent="2b4e8129b02d487f-3" source="2b4e8129b02d487f-12" target="2b4e8129b02d487f-13" edge="1">
          <mxGeometry relative="1" as="geometry" />
        </mxCell>
        <mxCell id="2b4e8129b02d487f-12" value="CARGA DE DATOS ADICIONALES" style="rounded=1;whiteSpace=wrap;html=1;shadow=0;labelBackgroundColor=none;strokeWidth=2;fontFamily=Verdana;fontSize=8;align=center;fontStyle=1" parent="2b4e8129b02d487f-3" vertex="1">
          <mxGeometry x="60" y="50" width="80" height="40.5" as="geometry" />
        </mxCell>
        <mxCell id="2b4e8129b02d487f-13" value="" style="strokeWidth=2;html=1;shape=mxgraph.flowchart.decision;whiteSpace=wrap;rounded=1;shadow=0;labelBackgroundColor=none;fontFamily=Verdana;fontSize=8;align=center;" parent="2b4e8129b02d487f-3" vertex="1">
          <mxGeometry x="260" y="55.249999999999915" width="30" height="30" as="geometry" />
        </mxCell>
        <mxCell id="2b4e8129b02d487f-32" value="No" style="edgeStyle=orthogonalEdgeStyle;rounded=0;html=1;labelBackgroundColor=none;startArrow=none;startFill=0;startSize=5;endArrow=classicThin;endFill=1;endSize=5;jettySize=auto;orthogonalLoop=1;strokeWidth=2;fontFamily=Verdana;fontSize=8" parent="2b4e8129b02d487f-3" edge="1">
          <mxGeometry x="-0.9529" y="15" relative="1" as="geometry">
            <Array as="points">
              <mxPoint x="100" y="250" />
            </Array>
            <mxPoint as="offset" />
            <mxPoint x="290" y="250" as="sourcePoint" />
            <mxPoint x="100" y="90.49999999999989" as="targetPoint" />
          </mxGeometry>
        </mxCell>
        <mxCell id="2b4e8129b02d487f-24" style="edgeStyle=orthogonalEdgeStyle;rounded=0;html=1;labelBackgroundColor=none;startArrow=none;startFill=0;startSize=5;endArrow=classicThin;endFill=1;endSize=5;jettySize=auto;orthogonalLoop=1;strokeWidth=2;fontFamily=Verdana;fontSize=8" parent="2b4e8129b02d487f-1" source="2b4e8129b02d487f-6" target="2b4e8129b02d487f-12" edge="1">
          <mxGeometry relative="1" as="geometry">
            <Array as="points">
              <mxPoint x="100" y="140" />
              <mxPoint x="100" y="140" />
            </Array>
          </mxGeometry>
        </mxCell>
        <mxCell id="2b4e8129b02d487f-25" value="No" style="edgeStyle=orthogonalEdgeStyle;rounded=0;html=1;labelBackgroundColor=none;startArrow=none;startFill=0;startSize=5;endArrow=classicThin;endFill=1;endSize=5;jettySize=auto;orthogonalLoop=1;strokeWidth=2;fontFamily=Verdana;fontSize=8" parent="2b4e8129b02d487f-1" source="2b4e8129b02d487f-13" target="2b4e8129b02d487f-7" edge="1">
          <mxGeometry x="-0.9364" y="-15" relative="1" as="geometry">
            <mxPoint as="offset" />
          </mxGeometry>
        </mxCell>
        <mxCell id="2b4e8129b02d487f-27" value="Yes" style="edgeStyle=orthogonalEdgeStyle;rounded=0;html=1;labelBackgroundColor=none;startArrow=none;startFill=0;startSize=5;endArrow=classicThin;endFill=1;endSize=5;jettySize=auto;orthogonalLoop=1;strokeWidth=2;fontFamily=Verdana;fontSize=8" parent="2b4e8129b02d487f-1" source="2b4e8129b02d487f-13" target="2b4e8129b02d487f-14" edge="1">
          <mxGeometry x="-0.8947" y="15" relative="1" as="geometry">
            <mxPoint as="offset" />
          </mxGeometry>
        </mxCell>
        <mxCell id="2b4e8129b02d487f-33" style="edgeStyle=orthogonalEdgeStyle;rounded=0;html=1;labelBackgroundColor=none;startArrow=none;startFill=0;startSize=5;endArrow=classicThin;endFill=1;endSize=5;jettySize=auto;orthogonalLoop=1;strokeWidth=2;fontFamily=Verdana;fontSize=8" parent="2b4e8129b02d487f-1" source="2b4e8129b02d487f-16" target="2b4e8129b02d487f-9" edge="1">
          <mxGeometry relative="1" as="geometry" />
        </mxCell>
        <mxCell id="2b4e8129b02d487f-31" style="edgeStyle=orthogonalEdgeStyle;rounded=0;html=1;entryX=0.5;entryY=1;labelBackgroundColor=none;startArrow=none;startFill=0;startSize=5;endArrow=classicThin;endFill=1;endSize=5;jettySize=auto;orthogonalLoop=1;strokeWidth=2;fontFamily=Verdana;fontSize=8" parent="2b4e8129b02d487f-1" source="2b4e8129b02d487f-17" target="2b4e8129b02d487f-10" edge="1">
          <mxGeometry relative="1" as="geometry" />
        </mxCell>
        <mxCell id="2b4e8129b02d487f-4" value="OPERACIONES" style="swimlane;html=1;startSize=20;horizontal=0;fillColor=#C1D0DB;strokeColor=#23445d;strokeWidth=2;" parent="2b4e8129b02d487f-1" vertex="1">
          <mxGeometry y="360" width="710" height="170" as="geometry" />
        </mxCell>
        <mxCell id="2b4e8129b02d487f-28" style="edgeStyle=orthogonalEdgeStyle;rounded=0;html=1;labelBackgroundColor=none;startArrow=none;startFill=0;startSize=5;endArrow=classicThin;endFill=1;endSize=5;jettySize=auto;orthogonalLoop=1;strokeWidth=2;fontFamily=Verdana;fontSize=8;" parent="2b4e8129b02d487f-4" source="2b4e8129b02d487f-14" target="2b4e8129b02d487f-15" edge="1">
          <mxGeometry relative="1" as="geometry">
            <Array as="points">
              <mxPoint x="320" y="80" />
              <mxPoint x="320" y="80" />
            </Array>
          </mxGeometry>
        </mxCell>
        <mxCell id="2b4e8129b02d487f-14" value="" style="rounded=1;whiteSpace=wrap;html=1;shadow=0;labelBackgroundColor=none;strokeWidth=2;fontFamily=Verdana;fontSize=8;align=center;" parent="2b4e8129b02d487f-4" vertex="1">
          <mxGeometry x="200" y="60.50000000000003" width="70" height="37" as="geometry" />
        </mxCell>
        <mxCell id="2b4e8129b02d487f-29" value="Yes" style="edgeStyle=orthogonalEdgeStyle;rounded=0;html=1;entryX=0;entryY=0.5;labelBackgroundColor=none;startArrow=none;startFill=0;startSize=5;endArrow=classicThin;endFill=1;endSize=5;jettySize=auto;orthogonalLoop=1;strokeWidth=2;fontFamily=Verdana;fontSize=8" parent="2b4e8129b02d487f-4" source="2b4e8129b02d487f-15" target="2b4e8129b02d487f-16" edge="1">
          <mxGeometry x="-0.5006" y="6" relative="1" as="geometry">
            <mxPoint as="offset" />
          </mxGeometry>
        </mxCell>
        <mxCell id="2b4e8129b02d487f-15" value="" style="strokeWidth=2;html=1;shape=mxgraph.flowchart.decision;whiteSpace=wrap;rounded=1;shadow=0;labelBackgroundColor=none;fontFamily=Verdana;fontSize=8;align=center;" parent="2b4e8129b02d487f-4" vertex="1">
          <mxGeometry x="330" y="64.00000000000006" width="30" height="30" as="geometry" />
        </mxCell>
        <mxCell id="2b4e8129b02d487f-30" style="edgeStyle=orthogonalEdgeStyle;rounded=0;html=1;labelBackgroundColor=none;startArrow=none;startFill=0;startSize=5;endArrow=classicThin;endFill=1;endSize=5;jettySize=auto;orthogonalLoop=1;strokeColor=#000000;strokeWidth=2;fontFamily=Verdana;fontSize=8;fontColor=#000000;" parent="2b4e8129b02d487f-4" source="2b4e8129b02d487f-16" target="2b4e8129b02d487f-17" edge="1">
          <mxGeometry relative="1" as="geometry" />
        </mxCell>
        <mxCell id="2b4e8129b02d487f-16" value="" style="shape=mxgraph.bpmn.shape;html=1;verticalLabelPosition=bottom;labelBackgroundColor=#ffffff;verticalAlign=top;perimeter=rhombusPerimeter;background=gateway;outline=none;symbol=parallelGw;rounded=1;shadow=0;strokeWidth=2;fontFamily=Verdana;fontSize=8;align=center;" parent="2b4e8129b02d487f-4" vertex="1">
          <mxGeometry x="440" y="64.00000000000006" width="30" height="30" as="geometry" />
        </mxCell>
        <mxCell id="2b4e8129b02d487f-17" value="" style="rounded=1;whiteSpace=wrap;html=1;shadow=0;labelBackgroundColor=none;strokeWidth=2;fontFamily=Verdana;fontSize=8;align=center;" parent="2b4e8129b02d487f-4" vertex="1">
          <mxGeometry x="540" y="60.5" width="70" height="37" as="geometry" />
        </mxCell>
        <mxCell id="N3oim_fn7DAthNam4-_d-1" value="TI" style="swimlane;horizontal=0;whiteSpace=wrap;html=1;startSize=20;fillColor=#C1D0DB;strokeColor=#23445d;strokeWidth=2;" vertex="1" parent="2b4e8129b02d487f-1">
          <mxGeometry y="530" width="710" height="150" as="geometry" />
        </mxCell>
        <mxCell id="N3oim_fn7DAthNam4-_d-3" value="INCIDENCIAS" style="rounded=1;whiteSpace=wrap;html=1;strokeWidth=2;" vertex="1" parent="N3oim_fn7DAthNam4-_d-1">
          <mxGeometry x="60" y="55" width="80" height="40" as="geometry" />
        </mxCell>
      </root>
    </mxGraphModel>
  </diagram>
</mxfile>
